<svg width="375" height="312" viewBox="0 0 375 312" fill="none" xmlns="http://www.w3.org/2000/svg">
<rect x="7.5" y="34.5" width="355" height="270" rx="79.5" fill="#FFF4EF"/>
<rect x="7.5" y="34.5" width="355" height="270" rx="79.5" stroke="#214431" stroke-width="15"/>
<rect x="7.5" y="34.5" width="355" height="270" rx="79.5" stroke="#214431" stroke-width="15"/>
<rect x="7.5" y="34.5" width="355" height="270" rx="79.5" stroke="#214431" stroke-width="15"/>
<path d="M124.08 271V253.102L191.295 179.523C199.184 170.905 205.68 163.415 210.784 157.051C215.888 150.621 219.667 144.589 222.119 138.955C224.638 133.254 225.898 127.288 225.898 121.057C225.898 113.898 224.174 107.7 220.727 102.463C217.347 97.2263 212.706 93.1828 206.807 90.3324C200.907 87.482 194.278 86.0568 186.92 86.0568C179.098 86.0568 172.271 87.6809 166.438 90.929C160.67 94.1108 156.196 98.5852 153.014 104.352C149.899 110.119 148.341 116.881 148.341 124.636H124.875C124.875 112.705 127.626 102.231 133.128 93.2159C138.63 84.2007 146.12 77.1742 155.599 72.1364C165.145 67.0985 175.85 64.5795 187.716 64.5795C199.648 64.5795 210.221 67.0985 219.435 72.1364C228.649 77.1742 235.874 83.9687 241.111 92.5199C246.348 101.071 248.966 110.583 248.966 121.057C248.966 128.547 247.607 135.872 244.889 143.031C242.238 150.124 237.598 158.045 230.969 166.795C224.406 175.479 215.292 186.085 203.625 198.614L157.886 247.534V249.125H252.545V271H124.08Z" fill="black"/>
</svg>
