<svg width="370" height="291" viewBox="0 0 370 291" fill="none" xmlns="http://www.w3.org/2000/svg">
<rect x="7.5" y="13.5" width="355" height="270" rx="79.5" fill="#FFF4EF"/>
<rect x="7.5" y="13.5" width="355" height="270" rx="79.5" stroke="#214431" stroke-width="15"/>
<rect x="7.5" y="13.5" width="355" height="270" rx="79.5" stroke="#214431" stroke-width="15"/>
<rect x="7.5" y="13.5" width="355" height="270" rx="79.5" stroke="#214431" stroke-width="15"/>
<path d="M182.665 254.585C171.831 254.585 162.075 252.431 153.396 248.122C144.717 243.813 137.762 237.904 132.53 230.395C127.298 222.885 124.436 214.33 123.943 204.727H146.102C146.964 213.283 150.842 220.362 157.736 225.963C164.691 231.503 173.001 234.273 182.665 234.273C190.42 234.273 197.314 232.457 203.347 228.825C209.44 225.194 214.211 220.208 217.658 213.868C221.166 207.466 222.92 200.234 222.92 192.17C222.92 183.922 221.105 176.567 217.473 170.104C213.903 163.579 208.979 158.439 202.7 154.685C196.422 150.93 189.251 149.022 181.188 148.96C175.402 148.899 169.462 149.791 163.368 151.638C157.274 153.423 152.258 155.731 148.318 158.562L126.898 155.977L138.347 62.9091H236.585V83.2216H157.551L150.903 138.989H152.011C155.889 135.911 160.752 133.357 166.599 131.325C172.447 129.294 178.541 128.278 184.881 128.278C196.453 128.278 206.763 131.048 215.811 136.588C224.921 142.066 232.061 149.576 237.232 159.116C242.464 168.657 245.08 179.552 245.08 191.801C245.08 203.866 242.371 214.637 236.955 224.116C231.599 233.534 224.213 240.982 214.795 246.46C205.378 251.877 194.668 254.585 182.665 254.585Z" fill="#010101"/>
</svg>
