<svg width="415" height="296" viewBox="0 0 415 296" fill="none" xmlns="http://www.w3.org/2000/svg">
<rect x="7.5" y="18.5" width="355" height="270" rx="79.5" fill="#FFF4EF"/>
<rect x="7.5" y="18.5" width="355" height="270" rx="79.5" stroke="#214431" stroke-width="15"/>
<rect x="7.5" y="18.5" width="355" height="270" rx="79.5" stroke="#214431" stroke-width="15"/>
<rect x="7.5" y="18.5" width="355" height="270" rx="79.5" stroke="#214431" stroke-width="15"/>
<path d="M56.821 242V226.02L116.835 160.324C123.878 152.63 129.679 145.942 134.236 140.26C138.793 134.519 142.167 129.133 144.357 124.102C146.606 119.012 147.73 113.686 147.73 108.122C147.73 101.73 146.191 96.1963 143.114 91.5206C140.095 86.8449 135.952 83.2346 130.685 80.6896C125.417 78.1446 119.499 76.8722 112.929 76.8722C105.945 76.8722 99.849 78.3222 94.6406 81.2223C89.4915 84.0632 85.4965 88.0582 82.6555 93.2074C79.8738 98.3565 78.483 104.393 78.483 111.318H57.5312C57.5312 100.665 59.9875 91.3134 64.8999 83.2642C69.8123 75.215 76.5002 68.9413 84.9638 64.4432C93.4865 59.9451 103.045 57.696 113.639 57.696C124.293 57.696 133.733 59.9451 141.96 64.4432C150.186 68.9413 156.638 75.0078 161.313 82.6428C165.989 90.2777 168.327 98.7708 168.327 108.122C168.327 114.81 167.113 121.35 164.687 127.742C162.319 134.075 158.176 141.148 152.258 148.96C146.398 156.714 138.26 166.183 127.844 177.369L87.0057 221.048V222.469H171.523V242H56.821ZM267.492 244.486C254.116 244.486 242.723 240.846 233.312 233.566C223.902 226.227 216.711 215.603 211.739 201.695C206.768 187.727 204.282 170.859 204.282 151.091C204.282 131.441 206.768 114.662 211.739 100.754C216.77 86.7857 223.991 76.1323 233.401 68.7933C242.871 61.3951 254.235 57.696 267.492 57.696C280.75 57.696 292.084 61.3951 301.494 68.7933C310.964 76.1323 318.185 86.7857 323.156 100.754C328.187 114.662 330.702 131.441 330.702 151.091C330.702 170.859 328.217 187.727 323.245 201.695C318.273 215.603 311.082 226.227 301.672 233.566C292.261 240.846 280.868 244.486 267.492 244.486ZM267.492 224.955C280.75 224.955 291.048 218.562 298.387 205.778C305.726 192.994 309.396 174.765 309.396 151.091C309.396 135.348 307.709 121.942 304.335 110.874C301.021 99.8066 296.227 91.3726 289.953 85.5724C283.739 79.7723 276.252 76.8722 267.492 76.8722C254.353 76.8722 244.084 83.353 236.686 96.3146C229.288 109.217 225.589 127.476 225.589 151.091C225.589 166.834 227.246 180.21 230.56 191.219C233.875 202.227 238.639 210.602 244.854 216.343C251.127 222.084 258.674 224.955 267.492 224.955Z" fill="#010101"/>
</svg>
